<svg width="363" height="140" viewBox="0 0 363 140" fill="none" xmlns="http://www.w3.org/2000/svg">
<path d="M123.296 38.456H153.536C158.4 38.456 162.368 39.16 165.44 40.568C168.512 41.976 170.88 43.736 172.544 45.848C174.208 47.96 175.328 50.264 175.904 52.76C176.544 55.256 176.864 57.56 176.864 59.672C176.864 61.784 176.544 64.088 175.904 66.584C175.328 69.016 174.208 71.288 172.544 73.4C170.88 75.512 168.512 77.272 165.44 78.68C162.368 80.024 158.4 80.696 153.536 80.696H135.296V107H123.296V38.456ZM135.296 70.904H152.864C154.208 70.904 155.584 70.712 156.992 70.328C158.4 69.944 159.68 69.336 160.832 68.504C162.048 67.608 163.008 66.456 163.712 65.048C164.48 63.576 164.864 61.752 164.864 59.576C164.864 57.336 164.544 55.48 163.904 54.008C163.264 52.536 162.4 51.384 161.312 50.552C160.224 49.656 158.976 49.048 157.568 48.728C156.16 48.408 154.656 48.248 153.056 48.248H135.296V70.904ZM203.743 108.344C199.775 108.344 196.223 107.704 193.087 106.424C190.015 105.08 187.391 103.256 185.215 100.952C183.103 98.648 181.471 95.896 180.319 92.696C179.231 89.496 178.687 85.976 178.687 82.136C178.687 78.36 179.231 74.872 180.319 71.672C181.471 68.472 183.103 65.72 185.215 63.416C187.391 61.112 190.015 59.32 193.087 58.04C196.223 56.696 199.775 56.024 203.743 56.024C207.711 56.024 211.231 56.696 214.303 58.04C217.439 59.32 220.063 61.112 222.175 63.416C224.351 65.72 225.983 68.472 227.071 71.672C228.223 74.872 228.799 78.36 228.799 82.136C228.799 85.976 228.223 89.496 227.071 92.696C225.983 95.896 224.351 98.648 222.175 100.952C220.063 103.256 217.439 105.08 214.303 106.424C211.231 107.704 207.711 108.344 203.743 108.344ZM203.743 99.704C206.175 99.704 208.287 99.192 210.079 98.168C211.871 97.144 213.343 95.8 214.495 94.136C215.647 92.472 216.479 90.616 216.991 88.568C217.567 86.456 217.855 84.312 217.855 82.136C217.855 80.024 217.567 77.912 216.991 75.8C216.479 73.688 215.647 71.832 214.495 70.232C213.343 68.568 211.871 67.224 210.079 66.2C208.287 65.176 206.175 64.664 203.743 64.664C201.311 64.664 199.199 65.176 197.407 66.2C195.615 67.224 194.143 68.568 192.991 70.232C191.839 71.832 190.975 73.688 190.399 75.8C189.887 77.912 189.631 80.024 189.631 82.136C189.631 84.312 189.887 86.456 190.399 88.568C190.975 90.616 191.839 92.472 192.991 94.136C194.143 95.8 195.615 97.144 197.407 98.168C199.199 99.192 201.311 99.704 203.743 99.704ZM233.098 57.368H243.466V64.664L243.658 64.856C245.322 62.104 247.498 59.96 250.186 58.424C252.874 56.824 255.85 56.024 259.114 56.024C264.554 56.024 268.842 57.432 271.978 60.248C275.114 63.064 276.682 67.288 276.682 72.92V107H265.738V75.8C265.61 71.896 264.778 69.08 263.242 67.352C261.706 65.56 259.306 64.664 256.042 64.664C254.186 64.664 252.522 65.016 251.05 65.72C249.578 66.36 248.33 67.288 247.306 68.504C246.282 69.656 245.482 71.032 244.906 72.632C244.33 74.232 244.042 75.928 244.042 77.72V107H233.098V57.368ZM278.431 57.368H286.687V42.488H297.631V57.368H307.519V65.528H297.631V92.024C297.631 93.176 297.663 94.168 297.727 95C297.855 95.832 298.079 96.536 298.399 97.112C298.783 97.688 299.327 98.136 300.031 98.456C300.735 98.712 301.695 98.84 302.911 98.84C303.679 98.84 304.447 98.84 305.215 98.84C305.983 98.776 306.751 98.648 307.519 98.456V106.904C306.303 107.032 305.119 107.16 303.967 107.288C302.815 107.416 301.631 107.48 300.415 107.48C297.535 107.48 295.199 107.224 293.407 106.712C291.679 106.136 290.303 105.336 289.279 104.312C288.319 103.224 287.647 101.88 287.263 100.28C286.943 98.68 286.751 96.856 286.687 94.808V65.528H278.431V57.368ZM333.343 108.344C329.375 108.344 325.823 107.704 322.687 106.424C319.615 105.08 316.991 103.256 314.815 100.952C312.703 98.648 311.071 95.896 309.919 92.696C308.831 89.496 308.287 85.976 308.287 82.136C308.287 78.36 308.831 74.872 309.919 71.672C311.071 68.472 312.703 65.72 314.815 63.416C316.991 61.112 319.615 59.32 322.687 58.04C325.823 56.696 329.375 56.024 333.343 56.024C337.311 56.024 340.831 56.696 343.903 58.04C347.039 59.32 349.663 61.112 351.775 63.416C353.951 65.72 355.583 68.472 356.671 71.672C357.823 74.872 358.399 78.36 358.399 82.136C358.399 85.976 357.823 89.496 356.671 92.696C355.583 95.896 353.951 98.648 351.775 100.952C349.663 103.256 347.039 105.08 343.903 106.424C340.831 107.704 337.311 108.344 333.343 108.344ZM333.343 99.704C335.775 99.704 337.887 99.192 339.679 98.168C341.471 97.144 342.943 95.8 344.095 94.136C345.247 92.472 346.079 90.616 346.591 88.568C347.167 86.456 347.455 84.312 347.455 82.136C347.455 80.024 347.167 77.912 346.591 75.8C346.079 73.688 345.247 71.832 344.095 70.232C342.943 68.568 341.471 67.224 339.679 66.2C337.887 65.176 335.775 64.664 333.343 64.664C330.911 64.664 328.799 65.176 327.007 66.2C325.215 67.224 323.743 68.568 322.591 70.232C321.439 71.832 320.575 73.688 319.999 75.8C319.487 77.912 319.231 80.024 319.231 82.136C319.231 84.312 319.487 86.456 319.999 88.568C320.575 90.616 321.439 92.472 322.591 94.136C323.743 95.8 325.215 97.144 327.007 98.168C328.799 99.192 330.911 99.704 333.343 99.704Z" fill="black"/>
<path d="M1 138.5V84H95.5L1 28.5L48 1L95.5 29.5V84L1 138.5Z" fill="black"/>
</svg>
